<svg xmlns="http://www.w3.org/2000/svg" viewBox="0 0 11.66 8.17"><defs><style>.cls-1{fill:#fff;}</style></defs><title>Recurso 4552</title><g id="Capa_2" data-name="Capa 2"><g id="iconos_sucursales" data-name="iconos sucursales"><path class="cls-1" d="M11.42,1.28a1.46,1.46,0,0,0-1-1A35.44,35.44,0,0,0,5.83,0,35.22,35.22,0,0,0,1.28.24a1.48,1.48,0,0,0-1,1A15.29,15.29,0,0,0,0,4.08,15.43,15.43,0,0,0,.24,6.89a1.46,1.46,0,0,0,1,1,33.83,33.83,0,0,0,4.55.25,34,34,0,0,0,4.56-.25,1.45,1.45,0,0,0,1-1,15.43,15.43,0,0,0,.24-2.81A15.29,15.29,0,0,0,11.42,1.28ZM4.67,5.83V2.33l3,1.75Z"/></g></g></svg>