<svg xmlns="http://www.w3.org/2000/svg" viewBox="0 0 10.14 10.14"><defs><style>.cls-1{fill:#fff;}</style></defs><title>Recurso 4522</title><g id="Capa_2" data-name="Capa 2"><g id="iconos_sucursales" data-name="iconos sucursales"><path class="cls-1" d="M5.07.91c1.35,0,1.51,0,2.05,0a3,3,0,0,1,.94.18,1.58,1.58,0,0,1,.58.38A1.43,1.43,0,0,1,9,2.08,2.78,2.78,0,0,1,9.19,3c0,.53,0,.7,0,2.05s0,1.51,0,2.05A2.78,2.78,0,0,1,9,8.06a1.7,1.7,0,0,1-1,1,2.78,2.78,0,0,1-.94.17c-.54,0-.7,0-2,0s-1.52,0-2.05,0A2.78,2.78,0,0,1,2.08,9a1.43,1.43,0,0,1-.58-.38,1.58,1.58,0,0,1-.38-.58,3,3,0,0,1-.18-.94c0-.54,0-.7,0-2S.92,3.55.94,3a3,3,0,0,1,.18-.94A1.43,1.43,0,0,1,1.5,1.5a1.43,1.43,0,0,1,.58-.38A3,3,0,0,1,3,.94c.53,0,.7,0,2.05,0m0-.91C3.69,0,3.52,0,3,0A3.71,3.71,0,0,0,1.75.27,2.53,2.53,0,0,0,.27,1.75,3.71,3.71,0,0,0,0,3c0,.54,0,.71,0,2.09S0,6.62,0,7.16A3.71,3.71,0,0,0,.27,8.39a2.61,2.61,0,0,0,.58.9,2.52,2.52,0,0,0,.9.58A3.71,3.71,0,0,0,3,10.11c.54,0,.71,0,2.09,0s1.55,0,2.09,0a3.71,3.71,0,0,0,1.23-.24A2.53,2.53,0,0,0,9.87,8.39a3.71,3.71,0,0,0,.24-1.23c0-.54,0-.72,0-2.09s0-1.55,0-2.09a3.71,3.71,0,0,0-.24-1.23,2.52,2.52,0,0,0-.58-.9,2.61,2.61,0,0,0-.9-.58A3.71,3.71,0,0,0,7.16,0c-.54,0-.72,0-2.09,0Z"/><path class="cls-1" d="M5.07,2.47a2.6,2.6,0,1,0,2.6,2.6A2.59,2.59,0,0,0,5.07,2.47Zm0,4.29A1.69,1.69,0,1,1,6.76,5.07,1.69,1.69,0,0,1,5.07,6.76Z"/><circle class="cls-1" cx="7.77" cy="2.36" r="0.61"/></g></g></svg>